<svg width="40" height="40" viewBox="0 0 40 40" fill="none" xmlns="http://www.w3.org/2000/svg">
<path d="M26.2499 20C24.6406 20 23.0937 19.2812 21.8749 17.9844C20.6953 16.7188 19.9687 15.0234 19.8437 13.2188C19.7109 11.2969 20.2968 9.52344 21.4921 8.23438C22.6874 6.95313 24.3749 6.25 26.2499 6.25C28.1093 6.25 29.7968 6.96094 30.9921 8.24219C32.2031 9.53906 32.789 11.3047 32.6484 13.2109C32.5156 15.0156 31.7968 16.7109 30.6171 17.9766C29.4062 19.2813 27.8593 20 26.2499 20ZM26.2499 8.75C25.0781 8.75 24.039 9.17187 23.3281 9.9375C22.5937 10.7266 22.2578 11.7969 22.3437 13.0391C22.4296 14.2734 22.914 15.4297 23.7109 16.2812C24.4453 17.0703 25.3515 17.5 26.2499 17.5C27.1562 17.5 28.0546 17.0625 28.789 16.2812C29.5859 15.4297 30.0702 14.2812 30.1562 13.0391C30.2421 11.8359 29.8906 10.7344 29.1562 9.95312C28.4453 9.17188 27.4062 8.75 26.2499 8.75Z" fill="#21272A"/>
<path d="M36.5471 33.75H15.9533C15.2736 33.75 14.6486 33.4453 14.2346 32.9141C13.8049 32.3594 13.6486 31.6094 13.8205 30.8984C14.4767 28.2578 16.1096 26.0703 18.5314 24.5625C20.6799 23.2266 23.4221 22.4922 26.2424 22.4922C29.1174 22.4922 31.7892 23.1953 33.9533 24.5313C36.383 26.0234 38.0158 28.2266 38.6721 30.8984C38.8439 31.6094 38.6877 32.3594 38.258 32.9141C37.8517 33.4453 37.2267 33.75 36.5471 33.75ZM16.3205 31.25H36.1877C34.8986 26.6406 30.0627 25 26.2502 25C22.4533 25 17.6252 26.6406 16.3205 31.25Z" fill="#21272A"/>
<path d="M11.4846 20.3125C8.73455 20.3125 6.32049 17.7578 6.09392 14.6172C5.97674 13.0078 6.47674 11.5234 7.49236 10.4297C8.50017 9.35156 9.91424 8.75781 11.4767 8.75781C13.0314 8.75781 14.4455 9.35937 15.4533 10.4453C16.4767 11.5469 16.9767 13.0312 16.8596 14.625C16.6486 17.7578 14.2267 20.3125 11.4846 20.3125ZM11.4846 11.25C10.6252 11.25 9.85955 11.5625 9.3283 12.1328C8.78142 12.7188 8.52361 13.5156 8.59392 14.4375C8.72674 16.2656 10.0471 17.8125 11.4846 17.8125C12.9221 17.8125 14.2502 16.2656 14.3752 14.4375C14.4377 13.5391 14.1721 12.7266 13.633 12.1406C13.1017 11.5625 12.3361 11.25 11.4846 11.25Z" fill="#21272A"/>
<path d="M12.0313 31.25H3.25787C2.64068 31.25 2.07037 30.9687 1.68756 30.4922C1.29693 29.9922 1.15631 29.3047 1.31256 28.6641C1.85162 26.4844 3.19537 24.6875 5.18756 23.4531C6.94537 22.3672 9.17975 21.7656 11.4766 21.7656C13.4454 21.7656 15.1251 22.0937 16.6094 22.7734C17.2344 23.0625 17.5157 23.8047 17.2266 24.4297C16.9376 25.0547 16.1954 25.3359 15.5704 25.0469C14.4219 24.5234 13.086 24.2656 11.4844 24.2656C8.63287 24.2656 5.03131 25.4531 3.89068 28.7578H12.0313C12.7188 28.7578 13.2813 29.3203 13.2813 30.0078C13.2813 30.6953 12.7188 31.25 12.0313 31.25Z" fill="#21272A"/>
</svg>
